<?xml version="1.0" encoding="utf-8"?>
<!-- Generator: Adobe Illustrator 23.0.1, SVG Export Plug-In . SVG Version: 6.00 Build 0)  -->
<svg version="1.1" id="Layer_1" xmlns="http://www.w3.org/2000/svg" xmlns:xlink="http://www.w3.org/1999/xlink" x="0px" y="0px"
	 viewBox="0 0 195.9 189.7" style="enable-background:new 0 0 195.9 189.7;" xml:space="preserve">
<style type="text/css">
	.st0{fill:url(#SVGID_1_);}
	.st1{fill:url(#SVGID_2_);}
	.st2{fill:url(#SVGID_3_);}
	.st3{fill:url(#SVGID_4_);}
	.st4{fill:url(#SVGID_5_);}
	.st5{fill:url(#SVGID_6_);}
	.st6{fill:url(#SVGID_7_);}
	.st7{fill:url(#SVGID_8_);}
	.st8{fill:url(#SVGID_9_);}
	.st9{fill:url(#SVGID_10_);}
</style>
<g>
	
		<linearGradient id="SVGID_1_" gradientUnits="userSpaceOnUse" x1="-59.8082" y1="66.9831" x2="184.5593" y2="167.1338" gradientTransform="matrix(1 0 0 -1 0 223.6)">
		<stop  offset="0" style="stop-color:#23EBC5"/>
		<stop  offset="0.9923" style="stop-color:#18B6C2"/>
	</linearGradient>
	<path class="st0" d="M86,150.8L0,116V76.3l86-35h4.5V75L32,94.8v2.4l58.6,20.1v33.5L86,150.8L86,150.8z"/>
	
		<linearGradient id="SVGID_2_" gradientUnits="userSpaceOnUse" x1="-58.0392" y1="62.6668" x2="186.3284" y2="162.8173" gradientTransform="matrix(1 0 0 -1 0 223.6)">
		<stop  offset="0" style="stop-color:#23EBC5"/>
		<stop  offset="0.9923" style="stop-color:#18B6C2"/>
	</linearGradient>
	<polygon class="st1" points="195.9,0 191.4,0 105.4,34.8 105.4,41.3 105.4,74.5 105.4,75 163.9,94.8 163.9,97.2 105.4,117.3 
		105.4,150.8 109.9,150.8 195.9,116 195.9,76.3 138.9,53.1 195.9,33.5 	"/>
	
		<linearGradient id="SVGID_3_" gradientUnits="userSpaceOnUse" x1="-42.1823" y1="23.9762" x2="202.1851" y2="124.1268" gradientTransform="matrix(1 0 0 -1 0 223.6)">
		<stop  offset="0" style="stop-color:#23EBC5"/>
		<stop  offset="0.9923" style="stop-color:#18B6C2"/>
	</linearGradient>
	<path class="st2" d="M14.6,179.2h7.5v8.1c-0.4,0.3-0.9,0.5-1.5,0.8c-0.6,0.3-1.3,0.5-2.1,0.8c-0.8,0.2-1.7,0.4-2.7,0.5
		c-1,0.1-2.1,0.2-3.3,0.2c-1.8,0-3.5-0.2-5-0.7s-2.8-1.2-3.8-2.2c-1-1-1.8-2.3-2.4-3.9s-0.8-3.6-0.8-5.9c0-2.3,0.3-4.2,0.8-5.9
		c0.6-1.6,1.4-2.9,2.4-3.9c1-1,2.3-1.7,3.8-2.2c1.5-0.5,3.1-0.7,5-0.7c1.3,0,2.4,0.1,3.4,0.2s1.9,0.3,2.7,0.5s1.5,0.5,2.1,0.8
		c0.6,0.3,1.1,0.5,1.6,0.8v7.9h-7.5v-2.3c0-0.8-0.2-1.4-0.5-1.8c-0.4-0.4-0.9-0.5-1.6-0.5c-0.7,0-1.3,0.2-1.6,0.5
		c-0.4,0.4-0.5,1-0.5,1.8v9.5c0,0.8,0.2,1.4,0.5,1.8c0.4,0.4,0.9,0.5,1.6,0.5c0.7,0,1.3-0.2,1.6-0.5c0.4-0.4,0.5-1,0.5-1.8
		L14.6,179.2L14.6,179.2z"/>
	
		<linearGradient id="SVGID_4_" gradientUnits="userSpaceOnUse" x1="-38.9159" y1="16.006" x2="205.4516" y2="116.1566" gradientTransform="matrix(1 0 0 -1 0 223.6)">
		<stop  offset="0" style="stop-color:#23EBC5"/>
		<stop  offset="0.9923" style="stop-color:#18B6C2"/>
	</linearGradient>
	<path class="st3" d="M47.8,177c0,2.3-0.3,4.3-0.8,5.9c-0.6,1.6-1.4,2.9-2.4,3.9c-1,1-2.3,1.7-3.8,2.2c-1.5,0.5-3.1,0.7-5,0.7
		c-1.8,0-3.5-0.2-5-0.7s-2.8-1.2-3.8-2.2s-1.8-2.3-2.4-3.9c-0.6-1.6-0.8-3.6-0.8-5.9c0-2.3,0.3-4.2,0.8-5.9c0.6-1.6,1.4-2.9,2.4-3.9
		c1-1,2.3-1.7,3.8-2.2c1.5-0.5,3.1-0.7,5-0.7c1.8,0,3.5,0.2,5,0.7s2.8,1.2,3.8,2.2s1.8,2.3,2.4,3.9C47.5,172.8,47.8,174.7,47.8,177z
		 M35.8,184.1c0.7,0,1.3-0.2,1.6-0.5c0.4-0.4,0.5-1,0.5-1.8v-9.5c0-0.8-0.2-1.4-0.5-1.8c-0.4-0.4-0.9-0.5-1.6-0.5
		c-0.7,0-1.3,0.2-1.6,0.5c-0.4,0.4-0.5,1-0.5,1.8v9.5c0,0.8,0.2,1.4,0.5,1.8C34.5,183.9,35.1,184.1,35.8,184.1z"/>
	
		<linearGradient id="SVGID_5_" gradientUnits="userSpaceOnUse" x1="-35.8726" y1="8.5806" x2="208.4948" y2="108.7312" gradientTransform="matrix(1 0 0 -1 0 223.6)">
		<stop  offset="0" style="stop-color:#23EBC5"/>
		<stop  offset="0.9923" style="stop-color:#18B6C2"/>
	</linearGradient>
	<path class="st4" d="M48.8,164.8h13.1c1.6,0,3.1,0.2,4.5,0.6c1.4,0.4,2.6,1.1,3.6,2.1c1,1,1.8,2.2,2.4,3.8c0.6,1.6,0.9,3.5,0.9,5.8
		c0,2.3-0.3,4.2-0.9,5.8s-1.4,2.8-2.4,3.8c-1,1-2.2,1.6-3.6,2.1s-2.9,0.6-4.5,0.6H48.8v-5.1h1.9v-14.1h-1.9V164.8z M61.3,184.1
		c0.7,0,1.3-0.2,1.6-0.5c0.4-0.4,0.5-1,0.5-1.8v-9.5c0-0.8-0.2-1.4-0.6-1.8s-0.9-0.5-1.6-0.5h-1.8v14.1L61.3,184.1L61.3,184.1z"/>
	
		<linearGradient id="SVGID_6_" gradientUnits="userSpaceOnUse" x1="-31.8132" y1="-1.3246" x2="212.5543" y2="98.826" gradientTransform="matrix(1 0 0 -1 0 223.6)">
		<stop  offset="0" style="stop-color:#23EBC5"/>
		<stop  offset="0.9923" style="stop-color:#18B6C2"/>
	</linearGradient>
	<path class="st5" d="M88.9,169.9h-3.8v5h2.8v3.6h-2.8v5.6h3.8v-5h7v10.1H74.4v-5.1h1.9v-14.1h-1.9v-5.2h21.5v9.5h-7V169.9z"/>
	
		<linearGradient id="SVGID_7_" gradientUnits="userSpaceOnUse" x1="-28.5985" y1="-9.1682" x2="215.7689" y2="90.9823" gradientTransform="matrix(1 0 0 -1 0 223.6)">
		<stop  offset="0" style="stop-color:#23EBC5"/>
		<stop  offset="0.9923" style="stop-color:#18B6C2"/>
	</linearGradient>
	<path class="st6" d="M106.5,183.6c0.7,0,1.2-0.1,1.5-0.3c0.3-0.2,0.4-0.5,0.4-0.9c0-0.3-0.1-0.5-0.4-0.8s-0.7-0.5-1.5-0.8
		c-1.5-0.6-2.9-1.1-4.1-1.7c-1.2-0.5-2.1-1.1-2.9-1.8s-1.3-1.4-1.7-2.3c-0.4-0.9-0.6-1.9-0.6-3.2c0-1.2,0.2-2.2,0.5-3.2
		s1-1.7,1.8-2.4c0.8-0.7,1.9-1.2,3.3-1.5s3.1-0.5,5.1-0.5c1.8,0,3.5,0.2,5.2,0.5c1.6,0.4,3,0.9,4,1.5v5.6h-6.6c0-0.6-0.2-1-0.5-1.2
		s-0.7-0.3-1.2-0.3c-0.7,0-1.2,0.1-1.5,0.3s-0.5,0.5-0.5,0.9c0,0.4,0.2,0.6,0.5,0.8c0.3,0.2,0.8,0.4,1.5,0.6
		c1.2,0.4,2.4,0.8,3.4,1.3s2,1,2.8,1.6c0.8,0.6,1.5,1.4,1.9,2.4c0.5,0.9,0.7,2,0.7,3.4c0,2.7-0.9,4.8-2.6,6.1s-4.3,2-7.7,2
		c-1.9,0-3.8-0.2-5.6-0.5s-3.2-0.7-4.3-1.2v-6.2h6.9c0,0.6,0.1,1.1,0.4,1.4C105.2,183.4,105.7,183.6,106.5,183.6z"/>
	
		<linearGradient id="SVGID_8_" gradientUnits="userSpaceOnUse" x1="-25.0019" y1="-17.9438" x2="219.3654" y2="82.2067" gradientTransform="matrix(1 0 0 -1 0 223.6)">
		<stop  offset="0" style="stop-color:#23EBC5"/>
		<stop  offset="0.9923" style="stop-color:#18B6C2"/>
	</linearGradient>
	<path class="st7" d="M137,164.8h11v5.2h-1.9v19.3h-8.8L128,175v9h1.9v5.1h-11v-5.1h1.9v-14.1h-1.9v-5.2h11.7l8.3,12.6v-7.5h-1.9
		L137,164.8L137,164.8z"/>
	
		<linearGradient id="SVGID_9_" gradientUnits="userSpaceOnUse" x1="-20.6123" y1="-28.6544" x2="223.7551" y2="71.4962" gradientTransform="matrix(1 0 0 -1 0 223.6)">
		<stop  offset="0" style="stop-color:#23EBC5"/>
		<stop  offset="0.9923" style="stop-color:#18B6C2"/>
	</linearGradient>
	<path class="st8" d="M159.7,184.1h1.9l-0.5-2.5h-4.2l-0.5,2.5h1.9v5.1h-10.8v-5.1h1.3l5.3-19.3h11.4l5.3,19.3h1.3v5.1h-12.3
		L159.7,184.1L159.7,184.1z M157.5,178.3h2.9l-1.3-6.3h-0.3L157.5,178.3z"/>
	
		<linearGradient id="SVGID_10_" gradientUnits="userSpaceOnUse" x1="-18.1777" y1="-34.595" x2="226.1896" y2="65.5557" gradientTransform="matrix(1 0 0 -1 0 223.6)">
		<stop  offset="0" style="stop-color:#23EBC5"/>
		<stop  offset="0.9923" style="stop-color:#18B6C2"/>
	</linearGradient>
	<path class="st9" d="M186.8,189.2h-13.7v-5.1h1.9v-14.1h-1.9v-5.2h14.1c1.3,0,2.4,0.1,3.5,0.4c1,0.3,1.9,0.7,2.6,1.3
		c0.7,0.6,1.3,1.4,1.7,2.3s0.6,2.1,0.6,3.4c0,1.4-0.2,2.5-0.6,3.4s-0.9,1.7-1.7,2.3s-1.6,1-2.6,1.3c-1,0.3-2.2,0.4-3.5,0.4h-3.4v4.5
		h3V189.2z M184.8,175.1c0.6,0,1-0.2,1.3-0.5s0.5-0.8,0.5-1.5v-1.1c0-0.7-0.2-1.2-0.5-1.5c-0.3-0.3-0.8-0.5-1.4-0.5h-1.1v5.1
		L184.8,175.1L184.8,175.1z"/>
</g>
</svg>
